<svg width="250" height="250" viewBox="0 0 250 250" fill="none" xmlns="http://www.w3.org/2000/svg">
<circle cx="125" cy="125" r="125" fill="#858D9D"/>
<g filter="url(#filter0_d_1_20)">
<path d="M81.0712 82C94.0712 82 103.995 84.3833 110.841 89.15C117.775 93.9167 121.241 101.197 121.241 110.99C121.241 123.21 115.218 131.487 103.171 135.82C104.818 137.813 106.681 140.24 108.761 143.1C110.841 145.96 112.965 149.08 115.131 152.46C117.298 155.753 119.378 159.177 121.371 162.73C123.365 166.197 125.141 169.62 126.701 173H108.371C106.725 169.88 104.948 166.76 103.041 163.64C101.135 160.433 99.1845 157.357 97.1912 154.41C95.2845 151.377 93.3778 148.56 91.4712 145.96C89.5645 143.273 87.7878 140.89 86.1412 138.81C84.9278 138.897 83.8878 138.94 83.0212 138.94C82.1545 138.94 81.3312 138.94 80.5512 138.94H72.6212V173H56.2412V84.21C60.2278 83.3433 64.4745 82.78 68.9812 82.52C73.4878 82.1733 77.5178 82 81.0712 82ZM82.2412 96.17C78.7745 96.17 75.5678 96.3 72.6212 96.56V125.68H79.7712C83.7578 125.68 87.2678 125.463 90.3012 125.03C93.3345 124.597 95.8478 123.817 97.8412 122.69C99.9212 121.563 101.481 120.047 102.521 118.14C103.561 116.233 104.081 113.807 104.081 110.86C104.081 108.087 103.561 105.747 102.521 103.84C101.481 101.933 99.9645 100.417 97.9712 99.29C96.0645 98.1633 93.7678 97.3833 91.0812 96.95C88.3945 96.43 85.4478 96.17 82.2412 96.17ZM202.835 158.83V173H145.895V82.91H162.275V158.83H202.835Z" fill="#FBFBFB"/>
</g>
<defs>
<filter id="filter0_d_1_20" x="52.2412" y="82" width="154.594" height="99" filterUnits="userSpaceOnUse" color-interpolation-filters="sRGB">
<feFlood flood-opacity="0" result="BackgroundImageFix"/>
<feColorMatrix in="SourceAlpha" type="matrix" values="0 0 0 0 0 0 0 0 0 0 0 0 0 0 0 0 0 0 127 0" result="hardAlpha"/>
<feOffset dy="4"/>
<feGaussianBlur stdDeviation="2"/>
<feComposite in2="hardAlpha" operator="out"/>
<feColorMatrix type="matrix" values="0 0 0 0 0 0 0 0 0 0 0 0 0 0 0 0 0 0 0.25 0"/>
<feBlend mode="normal" in2="BackgroundImageFix" result="effect1_dropShadow_1_20"/>
<feBlend mode="normal" in="SourceGraphic" in2="effect1_dropShadow_1_20" result="shape"/>
</filter>
</defs>
</svg>
